<?xml version="1.0" encoding="utf-8"?>
<!-- Generator: Adobe Illustrator 28.0.0, SVG Export Plug-In . SVG Version: 6.00 Build 0)  -->
<svg version="1.1" id="Ribbon" xmlns="http://www.w3.org/2000/svg" xmlns:xlink="http://www.w3.org/1999/xlink" x="0px" y="0px"
	 viewBox="0 0 64 64" style="enable-background:new 0 0 64 64;" xml:space="preserve">
<style type="text/css">
	.st0{fill:#DF5829;}
</style>
<path class="st0" d="M57.4,24.6v26.3c0,1.5-1.2,2.6-2.6,2.6h-3c-1,0-1.8-0.8-1.8-1.8V30.5c0-1.5-1.2-2.8-2.8-2.8H16.9
	c-1.5,0-2.8,1.2-2.8,2.8v21.3c0,1-0.8,1.8-1.8,1.8h-3c-1.5,0-2.6-1.2-2.6-2.6V24.6c0-1,0.6-2,1.6-2.4l22.7-8.8
	c0.7-0.3,1.5-0.3,2.2,0l22.7,8.8C56.8,22.6,57.4,23.6,57.4,24.6z"/>
</svg>
