<?xml version="1.0" encoding="utf-8"?>
<!-- Generator: Adobe Illustrator 28.0.0, SVG Export Plug-In . SVG Version: 6.00 Build 0)  -->
<svg version="1.1" id="Ribbon" xmlns="http://www.w3.org/2000/svg" xmlns:xlink="http://www.w3.org/1999/xlink" x="0px" y="0px"
	 viewBox="0 0 64 64" style="enable-background:new 0 0 64 64;" xml:space="preserve">
<style type="text/css">
	.st0{fill:#DF5829;}
</style>
<path class="st0" d="M53.3,28.6c0.8-1,1.7-2.2,1.7-3.6s-0.9-2.5-1.7-3.6c-0.5-0.7-1-1.3-1.1-1.9c-0.2-0.6-0.1-1.4,0-2.3
	c0.2-1.2,0.3-2.6-0.3-3.8c-0.7-1.2-2-1.7-3.2-2.2c-0.8-0.3-1.5-0.6-2-1.1S46,9,45.7,8.2c-0.5-1.2-1-2.5-2.2-3.2
	c-1.2-0.7-2.6-0.5-3.8-0.3C38.8,4.9,38,5,37.4,4.8c-0.6-0.2-1.2-0.6-1.8-1.1C34.5,2.9,33.4,2,32,2s-2.5,0.9-3.6,1.7
	c-0.7,0.5-1.3,1-1.9,1.1C26,5,25.2,4.9,24.3,4.7c-1.2-0.2-2.6-0.3-3.8,0.3c-1.2,0.7-1.7,2-2.2,3.2c-0.3,0.8-0.6,1.5-1.1,2
	s-1.2,0.7-2,1.1c-1.2,0.5-2.5,1-3.2,2.2c-0.7,1.2-0.5,2.6-0.3,3.8c0.1,0.9,0.2,1.7,0.1,2.3c-0.1,0.6-0.6,1.2-1.1,1.9
	C9.9,22.5,9,23.6,9,25s0.9,2.5,1.7,3.6c0.5,0.7,1,1.3,1.1,1.9c0.2,0.6,0.1,1.4-0.1,2.3c-0.2,1.2-0.3,2.7,0.3,3.8
	c0.7,1.2,2,1.7,3.2,2.2c0.8,0.3,1.5,0.6,2,1.1s0.7,1.2,1.1,2c0,0.1,0.1,0.2,0.1,0.3l-6.3,13.5c-0.2,0.4-0.1,0.8,0.1,1.1
	c0.2,0.3,0.7,0.4,1,0.3l6.2-1.8l2.6,6.2c0.2,0.4,0.5,0.6,0.9,0.6h0c0.4,0,0.8-0.3,0.9-0.6l5.6-14.3C30.2,47.6,31,48,32,48
	s1.8-0.4,2.5-0.9l5.5,14.3c0.2,0.4,0.5,0.6,0.9,0.6h0c0.4,0,0.8-0.2,0.9-0.6l2.7-6.2l6.2,1.8c0.4,0.1,0.8,0,1-0.3
	c0.3-0.3,0.3-0.7,0.1-1.1l-6.3-13.5c0-0.1,0.1-0.2,0.2-0.3c0.3-0.8,0.6-1.5,1.1-2s1.2-0.7,2-1.1c1.2-0.5,2.5-1,3.2-2.2
	c0.7-1.2,0.5-2.6,0.3-3.8c-0.1-0.9-0.2-1.7,0-2.3C52.4,29.8,52.8,29.2,53.3,28.6z M51.8,27.3c-0.6,0.8-1.2,1.6-1.5,2.6
	c-0.3,1-0.1,2,0,3c0.1,1,0.2,2-0.1,2.6c-0.3,0.6-1.2,1-2.2,1.4c-0.9,0.4-1.9,0.8-2.6,1.5S44.3,40,43.9,41c-0.4,1-0.8,1.9-1.4,2.2
	c-0.6,0.3-1.5,0.2-2.6,0.1c-1-0.1-2.1-0.3-3,0c-0.9,0.2-1.7,0.8-2.4,1.4c0,0-0.1,0-0.1,0.1c0,0,0,0-0.1,0C33.5,45.4,32.7,46,32,46
	s-1.5-0.6-2.3-1.2c0,0,0,0,0,0c-0.8-0.6-1.6-1.2-2.5-1.5c-0.4-0.1-0.8-0.2-1.3-0.2c-0.6,0-1.2,0.1-1.8,0.2c-1,0.1-2,0.2-2.6-0.1
	c-0.5-0.3-0.8-0.8-1.1-1.5c0,0,0-0.1,0-0.1c-0.1-0.2-0.2-0.4-0.2-0.6c-0.4-0.9-0.8-1.9-1.5-2.6S17,37.3,16,36.9
	c-1-0.4-1.9-0.8-2.2-1.4c-0.3-0.6-0.2-1.5-0.1-2.6c0.1-1,0.3-2.1,0-3c-0.2-1-0.9-1.8-1.5-2.6C11.6,26.5,11,25.7,11,25
	s0.6-1.5,1.2-2.3c0.6-0.8,1.2-1.6,1.5-2.6c0.3-1,0.1-2,0-3c-0.1-1-0.2-2,0.1-2.6c0.3-0.6,1.2-1,2.2-1.4c0.9-0.4,1.9-0.8,2.6-1.5
	S19.7,10,20.1,9c0.4-1,0.8-1.9,1.4-2.2c0.6-0.3,1.5-0.2,2.6-0.1c1,0.1,2.1,0.3,3,0c1-0.2,1.8-0.9,2.6-1.5C30.5,4.6,31.3,4,32,4
	s1.5,0.6,2.3,1.2c0.8,0.6,1.6,1.2,2.6,1.5c1,0.3,2,0.1,3,0c1-0.1,2-0.2,2.6,0.1c0.6,0.3,1,1.2,1.4,2.2c0.4,0.9,0.8,1.9,1.5,2.6
	s1.7,1.1,2.6,1.5c1,0.4,1.9,0.8,2.2,1.4c0.3,0.6,0.2,1.5,0.1,2.6c-0.1,1-0.3,2.1,0,3c0.2,1,0.9,1.8,1.5,2.6c0.6,0.8,1.2,1.6,1.2,2.3
	S52.4,26.5,51.8,27.3z"/>
<g>
	<path class="st0" d="M32,9c-8.8,0-16,7.2-16,16s7.2,16,16,16s16-7.2,16-16S40.8,9,32,9z M29.5,16h5c0.4,0,0.7,0.4,0.7,0.7L34.3,26
		c-0.1,0.2-0.2,0.2-0.3,0.2h-4c-0.1,0-0.3-0.1-0.3-0.2l-0.8-9.3C28.8,16.3,29.1,16,29.5,16z M42.7,30.1H21.4c-0.7,0-1.2-0.5-1.3-1
		c-0.1-0.5,0-0.9,0.3-1.2c0.2-0.2,0.6-0.4,1-0.4c0-4.5,2.8-8.3,6.8-9.8l0.8,8.8c0,0.2,0.2,0.5,0.5,0.5h5.1c0.2,0,0.5-0.2,0.5-0.5
		l0.8-8.8c3.9,1.5,6.7,5.3,6.8,9.8c0.5,0,1,0.4,1.2,0.9c0.2,0.5,0,1-0.2,1.4C43.4,30,43,30.1,42.7,30.1z"/>
</g>
</svg>
