<?xml version="1.0" encoding="utf-8"?>
<!-- Generator: Adobe Illustrator 28.0.0, SVG Export Plug-In . SVG Version: 6.00 Build 0)  -->
<svg version="1.1" id="Layer_1" xmlns="http://www.w3.org/2000/svg" xmlns:xlink="http://www.w3.org/1999/xlink" x="0px" y="0px"
	 viewBox="0 0 512 512" style="enable-background:new 0 0 512 512;" xml:space="preserve">
<style type="text/css">
	.st0{fill:#DF5829;}
</style>
<g>
	<path class="st0" d="M420.4,364.8c4.1-9.2,7.5-18.5,10.1-28.2c18.5,0.8,37.4-20.5,35.3-52.2c-5.9,0.1-11.3,2.2-16.3,5.8
		c-4.9,3.6-9.3,8.7-13.3,14.8c0.9-9.5,1.1-19,0.5-28.5c15.9-5.4,25.5-30.9,13.5-60c-9.5,3.6-15.4,13.7-18.4,26.8
		c-1-3.9-2.1-7.8-3.3-11.7c-1.2-4-5.6-6.4-9.7-5c-4.1,1.3-6.4,5.7-5,9.8c1,3.3,1.9,6.7,2.8,10.1c-8.6-9.6-20.2-13.7-29.6-10
		c5.6,18.6,17.9,35.1,34.3,39.9c0.5,8.8,0.5,17.7-0.2,26.5c-5.6-12.6-16.5-20.7-28-20.3v2.2c0,18.5,7.7,37.5,22.9,47
		c-2.3,8.9-5.4,17.6-9.2,26.1c-1.4-14.7-10.2-26.6-22.6-30.3c-2.5,6.7-3.9,14.1-3.9,21.4c0,12.4,3.9,24.8,12.3,34.4
		c-2,2.9-4,5.7-6.1,8.6c4.4,2.8,8.3,6.4,11.4,10.5c2.6-3.2,4.9-6.4,7.1-9.8c18.9,7.6,45.6-6.9,53.8-38.4
		C446.1,350.2,432.7,355,420.4,364.8L420.4,364.8z"/>
	<path class="st0" d="M119.3,383c13.6-15.1,15.3-37.5,8.5-55.7c-6.1,1.9-11.5,5.7-15.4,11c-4,5.3-6.4,11.9-7.1,19.2
		c-3.8-8.5-6.8-17.1-9.2-26.1c15.8-9.9,23.5-30,22.9-49.2h-0.8c-11.2,0-21.7,8.1-27.2,20.3c-0.8-8.8-0.8-17.6-0.2-26.5
		c16.3-4.7,28.6-21.3,34.2-39.9c-9.4-3.6-20.9,0.4-29.6,10c0.9-3.4,1.8-6.7,2.9-10.1c1.2-4.1-1-8.5-5.1-9.8s-8.4,1-9.7,5
		c-1.2,3.9-2.3,7.8-3.3,11.7c-3.1-13.1-8.9-23.2-18.5-26.8c-12,29.2-2.4,54.6,13.5,60c-0.5,9.5-0.5,19.1,0.5,28.5
		c-7.8-12.2-17.8-20.4-29.5-20.6c-0.1,1.7-0.2,3.3-0.2,5c0,28.9,17.9,47.9,35.4,47.2c2.6,9.6,6,19,10.1,28.2
		C79.1,355,65.8,350.2,53.1,354c8.3,31.5,35,46,53.8,38.4c2.2,3.3,4.7,6.6,7.1,9.8c3.2-4.2,7.1-7.8,11.6-10.6
		C123.3,388.8,121.3,385.9,119.3,383L119.3,383z"/>
	<path class="st0" d="M169.3,351.1h173.2v33H169.3V351.1z"/>
	<path class="st0" d="M165.4,294.2l90.6-47.6l90.5,47.6l-17.3-100.8l73.3-71.4l-101.3-14.7L256,15.5l-45.3,91.8L109.4,122l73.3,71.4
		L165.4,294.2z"/>
	<path class="st0" d="M361.2,399.7H150.8c-17.1,0-31.1,14-31.1,31.1v65.7h272.6v-65.7C392.3,413.6,378.3,399.7,361.2,399.7
		L361.2,399.7z M308.4,471.4h-105c-4.3,0-7.8-3.5-7.8-7.8s3.5-7.8,7.8-7.8h105c4.3,0,7.8,3.5,7.8,7.8S312.8,471.4,308.4,471.4
		L308.4,471.4z M340.3,440.2H171.7c-4.3,0-7.8-3.5-7.8-7.8s3.5-7.8,7.8-7.8h168.6c4.3,0,7.8,3.5,7.8,7.8S344.6,440.2,340.3,440.2z"
		/>
	<path class="st0" d="M256,264.2l-42.8,22.5c-6.1,16.6-13.7,32.9-23,49h131.7c-9.4-16-17-32.3-23-49L256,264.2z"/>
</g>
<rect x="216.4" y="232.1" class="st0" width="72.6" height="69.4"/>
</svg>
