<?xml version="1.0" encoding="utf-8"?>
<!-- Generator: Adobe Illustrator 28.0.0, SVG Export Plug-In . SVG Version: 6.00 Build 0)  -->
<svg version="1.1" id="Capa_1" xmlns="http://www.w3.org/2000/svg" xmlns:xlink="http://www.w3.org/1999/xlink" x="0px" y="0px"
	 viewBox="0 0 512 512" style="enable-background:new 0 0 512 512;" xml:space="preserve">
<style type="text/css">
	.st0{fill:#DF5829;}
</style>
<g>
	<g>
		<path class="st0" d="M318.7,293.1c-12.9-7-27.6-11-43.3-11h-37.3c-16.1,0-31.3,4.2-44.4,11.6c-27.6,15.5-46.2,45.1-46.2,79v27.9
			H366v-27.9C366,338.3,346.9,308.4,318.7,293.1z"/>
	</g>
</g>
<g>
	<g>
		<path class="st0" d="M421.7,257.2h-31c-18.1,0-35,5.4-49.1,14.6c6.8,4.5,13.2,9.7,19.1,15.6c22.8,22.8,35.3,53,35.3,85.3v13.1h116
			v-38.2C512,297.7,471.5,257.2,421.7,257.2z"/>
	</g>
</g>
<g>
	<g>
		<path class="st0" d="M121.3,257.2h-31C40.5,257.2,0,297.7,0,347.5v38.2h117.5v-13.1c0-32.2,12.5-62.5,35.3-85.3
			c5.7-5.7,11.8-10.7,18.3-15.1C156.9,262.8,139.7,257.2,121.3,257.2z"/>
	</g>
</g>
<g>
	<g>
		<path class="st0" d="M406.2,121.4c-0.2,0-0.3,0-0.5,0c-33.6,0.3-60.6,29.3-60.3,64.7c0.3,35.2,27.6,63.7,60.9,63.7
			c0.2,0,0.3,0,0.5,0c16.5-0.1,31.8-7.1,43.2-19.5c11.2-12.2,17.2-28.2,17.1-45.1C466.8,149.9,439.5,121.4,406.2,121.4z"/>
	</g>
</g>
<g>
	<g>
		<path class="st0" d="M105.8,121.4c-0.2,0-0.3,0-0.5,0c-33.6,0.3-60.6,29.3-60.3,64.7c0.3,35.2,27.6,63.7,60.9,63.7
			c0.2,0,0.3,0,0.5,0c16.5-0.1,31.8-7.1,43.2-19.5c11.2-12.2,17.2-28.2,17.1-45.1C166.4,149.9,139.1,121.4,105.8,121.4z"/>
	</g>
</g>
<g>
	<g>
		<path class="st0" d="M256.8,111.4c-38.7,0-70.2,33.3-70.2,74.1c0,29.5,16.4,55.1,40.2,67c9.1,4.6,19.3,7.1,30,7.1s20.9-2.5,30-7.1
			c23.7-11.9,40.2-37.5,40.2-67C326.9,144.7,295.5,111.4,256.8,111.4z"/>
	</g>
</g>
</svg>
